Coordinates
version=1
nRows=18
nColumns=22
inDegrees=yes

Units are S.I. units (second, meters, Newtons, ...)
If the header above contains a line with 'inDegrees', this indicates whether rotational values are in degrees (yes) or radians (no).

endheader
time	pelvis_tilt	pelvis_list	pelvis_rotation	pelvis_tx	pelvis_ty	pelvis_tz	hip_flexion_r	hip_adduction_r	hip_rotation_r	knee_angle_r	ankle_angle_r	subtalar_angle_r	hip_flexion_l	hip_adduction_l	hip_rotation_l	knee_angle_l	ankle_angle_l	subtalar_angle_l	lumbar_extension	lumbar_bending	lumbar_rotation
      5.55000000	     -2.79430425	     -4.16812271	    -77.00189238	      0.79507785	      1.06924306	      0.24085813	     -4.00143386	     13.41934002	     -5.18636472	     -8.71685377	     10.66964248	    -13.06264499	     15.78851949	     -9.70837653	      4.96656547	    -46.46071454	     11.17923082	      1.10150081	     -4.59192335	      3.62449467	     -2.80942244
      5.56000000	     -2.67073543	     -4.08052661	    -77.96379429	      0.79540159	      1.06918565	      0.24876929	     -4.59116257	     13.21729118	     -4.19749513	     -8.62259179	     10.91885702	    -13.08252470	     16.43501609	     -9.38511237	      4.93858730	    -45.18725828	     11.42041200	      1.15411731	     -4.58752657	      3.39261367	     -2.53135430
      5.57000000	     -2.53816899	     -3.99264498	    -78.92598127	      0.79574427	      1.06908272	      0.25662551	     -5.14947096	     12.98529998	     -3.22287623	     -8.57491412	     11.17461739	    -13.10834178	     17.04930079	     -9.03692067	      4.91437638	    -43.87499353	     11.55031809	      1.30386652	     -4.57752403	      3.16103457	     -2.26179358
      5.58000000	     -2.40589304	     -3.95314846	    -79.89135186	      0.79609294	      1.06899336	      0.26443438	     -5.74013290	     12.74678273	     -2.23535629	     -8.54755988	     11.43309803	    -13.19155716	     17.57847919	     -8.68945625	      4.88976316	    -42.52432730	     11.60946283	      1.60710713	     -4.61931596	      2.94828536	     -1.98700345
      5.59000000	     -2.27392136	     -3.85768374	    -80.85875516	      0.79644102	      1.06876878	      0.27212984	     -6.20879904	     12.48037250	     -1.26983964	     -8.61378004	     11.69355197	    -13.25973735	     18.14294400	     -8.31991117	      4.86890466	    -41.14916331	     11.57246638	      1.95597889	     -4.59974475	      2.73300893	     -1.71259509
      5.60000000	     -2.14135610	     -3.75728136	    -81.82276836	      0.79679650	      1.06848042	      0.27974547	     -6.63033721	     12.20052684	     -0.30946783	     -8.73599239	     11.96601385	    -13.33634264	     18.68302989	     -7.94339191	      4.84598553	    -39.74311501	     11.47312644	      2.37368525	     -4.57612506	      2.52379854	     -1.44439027
      5.61000000	     -1.99613523	     -3.61896062	    -82.76269846	      0.79719649	      1.06808881	      0.28727487	     -6.95498363	     11.89308984	      0.60116246	     -8.93793440	     12.26223075	    -13.36786317	     19.23405089	     -7.53593593	      4.83693490	    -38.30347084	     11.29454964	      2.73788706	     -4.51167741	      2.30394443	     -1.20504491
      5.62000000	     -1.86018927	     -3.53974973	    -83.67705805	      0.79763561	      1.06771905	      0.29481042	     -7.34069465	     11.59996003	      1.53255168	     -9.12258385	     12.57922996	    -13.44852638	     19.68787283	     -7.13883161	      4.85442882	    -36.82891578	     11.16815685	      3.33865098	     -4.50729219	      2.10984979	     -0.97946889
      5.63000000	     -1.69096699	     -3.39260736	    -84.53507512	      0.79817135	      1.06720875	      0.30229222	     -7.59078083	     11.26126944	      2.36002706	     -9.39889334	     12.93334558	    -13.44546732	     20.18181114	     -6.67366292	      4.91764550	    -35.31850313	     10.95786123	      3.72157311	     -4.42379960	      1.87861206	     -0.83061133
      5.64000000	     -1.52765548	     -3.30473067	    -85.35889353	      0.79876996	      1.06672695	      0.30979881	     -7.89991106	     10.93295413	      3.19024951	     -9.66374775	     13.29869650	    -13.46536648	     20.57361958	     -6.20752487	      5.03555912	    -33.77227645	     10.82304538	      4.36760520	     -4.40037459	      1.66795638	     -0.68956398
      5.65000000	     -1.33555108	     -3.18788562	    -86.12340812	      0.79947242	      1.06615798	      0.31729889	     -8.13457300	     10.57207766	      3.92490491	     -9.98493938	     13.67734607	    -13.45973728	     20.95766049	     -5.68059024	      5.23241118	    -32.18796391	     10.64221020	      4.91213506	     -4.33775995	      1.42947042	     -0.61672096
      5.66000000	     -1.12634395	     -3.07512870	    -86.84631557	      0.80024773	      1.06554373	      0.32481933	     -8.34773237	     10.19312427	      4.59794345	    -10.33463966	     14.05889519	    -13.45896061	     21.29164904	     -5.11565531	      5.51663477	    -30.56351098	     10.44753575	      5.49809582	     -4.27141679	      1.17851716	     -0.58283593
      5.67000000	     -0.90115724	     -2.96621047	    -87.53186942	      0.80108981	      1.06488233	      0.33236355	     -8.53741373	      9.79732943	      5.21088588	    -10.71709928	     14.44197928	    -13.46724984	     21.57088735	     -4.51627441	      5.90383782	    -28.89527086	     10.22959321	      6.13453399	     -4.20172261	      0.91614993	     -0.57741918
      5.68000000	     -0.66127681	     -2.85930829	    -88.18837518	      0.80196661	      1.06417245	      0.33995966	     -8.71020515	      9.38619798	      5.76776332	    -11.12056119	     14.81722040	    -13.48077598	     21.78741165	     -3.88874517	      6.41695019	    -27.17620101	      9.97008786	      6.85109716	     -4.12358172	      0.64002774	     -0.59175817
      5.69000000	     -0.40996168	     -2.75601795	    -88.82383964	      0.80286495	      1.06341158	      0.34761624	     -8.86999376	      8.96254435	      6.28255529	    -11.54550392	     15.19433338	    -13.49137489	     21.93313825	     -3.24349569	      7.07307034	    -25.40204456	      9.67655527	      7.64913945	     -4.03804412	      0.35347466	     -0.61499078
      5.70000000	     -0.15292563	     -2.65115712	    -89.44780930	      0.80374403	      1.06259727	      0.35534935	     -9.01741350	      8.53285201	      6.76155965	    -11.98283621	     15.56011250	    -13.49158990	     22.00679611	     -2.59735581	      7.88928215	    -23.56883910	      9.34212501	      8.53066734	     -3.93755455	      0.05845818	     -0.63654536
      5.71000000	      0.10385761	     -2.54291442	    -90.07025560	      0.80457773	      1.06172536	      0.36316060	     -9.15297887	      8.10287479	      7.21610575	    -12.43121047	     15.91650819	    -13.47929762	     22.00781799	     -1.96901940	      8.87611361	    -21.67888592	      8.99195748	      9.47338480	     -3.82050917	     -0.24018087	     -0.64708125
      5.72000000	      0.35104980	     -2.42706516	    -90.70299770	      0.80532331	      1.06079557	      0.37104948	     -9.27549557	      7.68236705	      7.65532453	    -12.88538201	     16.24987420	    -13.45599552	     21.94171603	     -1.38480645	     10.03014481	    -19.74027668	      8.64216235	     10.45660714	     -3.68217769	     -0.53534264	     -0.63379981
